<?xml version="1.0" standalone="no"?>
<!DOCTYPE svg PUBLIC "-//W3C//DTD SVG 20010904//EN"
 "http://www.w3.org/TR/2001/REC-SVG-20010904/DTD/svg10.dtd">
<svg version="1.0" xmlns="http://www.w3.org/2000/svg"
 width="1280.000000pt" height="1280.000000pt" viewBox="0 0 1280.000000 1280.000000"
 preserveAspectRatio="xMidYMid meet">
<metadata>
Created by potrace 1.15, written by Peter Selinger 2001-2017
</metadata>
<g transform="translate(0.000000,1280.000000) scale(0.100000,-0.100000)"
fill="#000000" stroke="none">
<path d="M3717 11859 c-20 -5 -49 -17 -64 -26 -32 -21 -420 -455 -463 -518
-41 -60 -43 -86 -5 -102 78 -35 80 -37 83 -80 2 -28 -10 -85 -37 -170 -23 -71
-41 -138 -41 -149 0 -34 29 -64 76 -75 24 -6 47 -16 50 -21 3 -5 0 -31 -7 -58
-17 -66 -3 -108 66 -205 l55 -76 -10 -97 c-6 -53 -13 -106 -15 -118 -4 -16
-70 -53 -287 -161 -254 -126 -302 -155 -468 -273 -102 -72 -330 -228 -507
-346 -370 -246 -486 -335 -634 -483 -244 -246 -351 -511 -283 -696 31 -84 124
-159 246 -199 78 -25 249 -56 312 -56 24 0 36 -5 36 -14 0 -8 12 -17 26 -20
l25 -7 -8 -82 c-21 -216 -2 -432 54 -611 140 -448 555 -754 1030 -760 132 -1
123 12 92 -139 -36 -172 -16 -259 85 -388 38 -48 52 -57 121 -83 l78 -28 -7
-822 c-4 -451 -11 -1145 -16 -1541 -4 -396 -5 -723 -2 -727 4 -4 193 -86 420
-183 l412 -176 338 61 c185 34 345 63 355 66 9 3 19 0 21 -8 27 -96 42 -134
70 -175 32 -48 32 -48 19 -98 -21 -75 -28 -253 -13 -300 28 -86 150 -165 360
-234 163 -54 179 -67 221 -184 65 -180 284 -235 566 -141 247 83 503 231 503
292 0 13 -32 48 -92 100 -161 138 -647 647 -656 686 -1 7 8 17 22 24 23 10 24
13 14 54 -18 76 -1 292 61 783 74 588 83 697 84 945 0 210 -15 357 -58 557
-14 63 -25 118 -25 121 1 23 310 -489 465 -768 232 -420 301 -578 293 -677
l-5 -52 25 20 c14 10 28 19 32 19 4 0 26 -55 50 -123 49 -141 128 -315 156
-339 27 -23 42 -24 97 -9 43 12 49 12 66 -4 11 -9 43 -76 72 -148 123 -309
190 -392 349 -433 124 -32 293 4 454 96 190 109 271 232 220 333 -9 18 -96
113 -193 212 -216 220 -329 359 -565 690 l-104 147 24 22 24 21 -544 1239
-544 1239 -118 90 c-151 113 -398 279 -472 316 -106 54 -334 116 -529 146 -53
8 -55 25 -8 69 23 23 35 42 35 61 0 18 -11 38 -35 59 l-35 32 0 130 c0 122 17
414 24 422 2 2 47 10 101 18 l97 14 46 -38 c155 -129 299 -208 491 -272 413
-138 902 -145 1096 -16 67 44 400 360 454 430 52 68 71 114 71 176 0 43 3 50
19 50 11 0 21 5 23 11 2 7 30 -3 68 -24 134 -73 382 -130 570 -131 104 -1 120
1 165 24 42 21 55 35 80 84 25 50 30 74 33 150 4 111 -13 146 -86 178 -90 40
-334 20 -678 -57 -67 -15 -154 -27 -205 -29 l-89 -2 0 75 c0 80 -15 124 -42
129 -21 4 -50 -50 -71 -137 -9 -35 -18 -65 -19 -67 -4 -4 -928 -25 -1208 -27
l-225 -2 -54 90 c-30 50 -164 329 -298 620 -134 292 -255 548 -270 570 -88
136 -175 215 -278 254 -32 12 -104 25 -172 31 -145 14 -183 26 -300 95 -75 45
-103 56 -152 61 -42 5 -65 3 -76 -6 -13 -11 -15 -8 -15 19 0 17 6 33 13 35
155 45 222 123 272 320 53 210 88 616 68 790 l-12 96 60 127 c32 71 59 142 59
159 0 51 -35 83 -154 140 -152 73 -222 94 -356 109 -67 7 -165 27 -235 48
-141 41 -177 47 -228 36z m19 -2057 c-4 -3 -14 2 -24 12 -16 18 -16 18 6 6 13
-6 21 -14 18 -18z m3273 -1815 c-14 -12 -52 -55 -83 -94 -32 -40 -60 -73 -62
-73 -3 0 -30 9 -62 19 -31 11 -141 30 -244 42 -104 12 -188 25 -188 28 0 6
593 98 640 100 l25 0 -26 -22z"/>
</g>
</svg>
