<svg width="21" height="20" viewBox="0 0 21 20" fill="none" xmlns="http://www.w3.org/2000/svg">
<path d="M5.88907 12.06C6.89907 12.06 7.81907 12.63 8.33907 13.59C8.65907 14.18 9.29907 14.54 9.99907 14.54C10.6891 14.54 11.3291 14.18 11.6491 13.59C12.1691 12.63 13.0891 12.06 14.0991 12.06H18.0891H19.5991L18.6291 3.20001C18.4391 1.40001 16.8691 0 15.0691 0H4.91907C3.11907 0 1.54907 1.40001 1.35907 3.20001L0.389069 12.06H1.89907H5.88907Z" fill="white"/>
<path d="M19.9791 15.44L19.7691 13.56H18.2591H14.1091C13.6591 13.56 13.2291 13.84 12.9791 14.31C12.3891 15.38 11.2491 16.04 10.0091 16.04C8.75906 16.04 7.61906 15.38 7.03906 14.31C6.77906 13.84 6.34906 13.56 5.89906 13.56H1.73906H0.239063L0.0290606 15.44C-0.110939 16.73 0.259061 17.98 1.04906 18.85C1.70906 19.59 2.60906 20 3.57906 20H16.4291C17.3991 20 18.2991 19.59 18.9591 18.85C19.7391 17.98 20.1091 16.73 19.9791 15.44Z" fill="white"/>
</svg>
