<svg width="20" height="20" viewBox="0 0 20 20" fill="none" xmlns="http://www.w3.org/2000/svg">
<path d="M20 6.16594C20 7.81951 19.45 9.36827 18.45 10.5328L10.6 19.6739C10.56 19.7205 10.45 19.8253 10.4 19.8603C10.28 19.9534 10.14 20 10 20C9.86 20 9.71 19.9534 9.59 19.8603C9.53 19.8137 9.48 19.7671 9.42 19.6972L1.56 10.5328C0.549998 9.36827 0 7.81951 0 6.16594C0 4.51238 0.549998 2.96361 1.56 1.79913C3.63 -0.599709 6.99 -0.599709 9.06 1.79913L10 2.90538L10.95 1.79913C13.02 -0.599709 16.38 -0.599709 18.44 1.79913C19.45 2.96361 20 4.51238 20 6.16594Z" fill="white"/>
</svg>
