<svg width="20" height="20" viewBox="0 0 20 20" fill="none" xmlns="http://www.w3.org/2000/svg">
<path d="M16.84 3.63209H13.02C12.56 3.63209 12.13 3.34907 11.9 2.88916L11.24 1.60379C10.74 0.613226 9.82 0 8.84 0H2.81C1.26 0 0 1.48584 0 3.31367V16.2736C0 18.3255 1.42 20 3.16 20H16.84C18.58 20 20 18.3255 20 16.2736V7.35851C20 5.30662 18.58 3.63209 16.84 3.63209ZM1.5 3.31367C1.5 2.46462 2.09 1.76887 2.81 1.76887H8.84C9.29 1.76887 9.72001 2.05189 9.96001 2.5118L10.53 3.63209H1.5V3.31367Z" fill="white"/>
</svg>
