<svg width="20" height="22" viewBox="0 0 20 22" fill="none" xmlns="http://www.w3.org/2000/svg">
<path d="M20 4.60001V17.4C19.9584 18.3903 19.5273 19.3242 18.8007 19.9984C18.0741 20.6725 17.1107 21.0325 16.12 21H10C9.80109 21 9.61032 20.921 9.46967 20.7803C9.32902 20.6397 9.25 20.4489 9.25 20.25V16.73C9.608 16.6724 9.93776 16.5005 10.19 16.24L10.5 15.94L11.25 15.2L12.25 14.2L13.25 13.2L13.99 12.46C14.2066 12.2607 14.398 12.0357 14.56 11.79C14.7141 11.523 14.7903 11.2181 14.78 10.91C14.7638 10.4978 14.6087 10.1031 14.34 9.79001C14.2954 9.72881 14.2452 9.6719 14.19 9.62001L13.58 9.01001L12.69 8.13001L11.69 7.13001C11.4 6.85001 11.12 6.57001 10.84 6.28001L10.3 5.75001L10.21 5.66001C9.95219 5.4016 9.62002 5.23027 9.26 5.17001V1.75001C9.25998 1.55282 9.33763 1.36355 9.47612 1.22319C9.61462 1.08282 9.80283 1.00264 10 1.00001H16.12C17.1107 0.967501 18.0741 1.32749 18.8007 2.00167C19.5273 2.67585 19.9584 3.60968 20 4.60001Z" fill="white"/>
<path d="M0.75 11H13" stroke="white" stroke-width="1.5" stroke-linecap="round" stroke-linejoin="round"/>
<path d="M13 11L9 7.00001" stroke="white" stroke-width="1.5" stroke-linecap="round" stroke-linejoin="round"/>
<path d="M13 11L9 15" stroke="white" stroke-width="1.5" stroke-linecap="round" stroke-linejoin="round"/>
</svg>
