<svg width="20" height="20" viewBox="0 0 20 20" fill="none" xmlns="http://www.w3.org/2000/svg">
<path d="M10.0002 11.82C11.0604 11.82 11.9198 11.0052 11.9198 9.99999C11.9198 8.99483 11.0604 8.17999 10.0002 8.17999C8.94001 8.17999 8.08055 8.99483 8.08055 9.99999C8.08055 11.0052 8.94001 11.82 10.0002 11.82Z" fill="white"/>
<path d="M18.7968 10.98L18.2589 10.69C17.8792 10.48 17.837 10.14 17.837 10C17.837 9.86 17.8792 9.52 18.2589 9.31L18.7968 9.02C19.3558 8.71 19.7566 8.22 19.9148 7.63C20.0836 7.04 19.9992 6.42 19.6828 5.89L18.5964 4.11C17.9319 3.02 16.4447 2.64 15.295 3.27L14.7571 3.56C14.3774 3.77 14.0399 3.63 13.9239 3.56C13.7973 3.5 13.502 3.29 13.502 2.88V2.29C13.502 1.03 12.4156 0 11.0866 0H8.91383C7.58484 0 6.49845 1.03 6.49845 2.29V2.88C6.49845 3.29 6.20314 3.5 6.08711 3.56C5.96054 3.63 5.623 3.77 5.2433 3.56L4.7054 3.27C3.55572 2.64 2.07905 3.02 1.41456 4.11L0.328174 5.89C-0.346863 6.98 0.0539686 8.39 1.21419 9.02L1.74156 9.31C2.12127 9.52 2.16346 9.86 2.16346 10C2.16346 10.14 2.12127 10.48 1.74156 10.69L1.21419 10.98C0.0539686 11.61 -0.346863 13.02 0.328174 14.11L1.41456 15.89C1.73099 16.42 2.24783 16.8 2.88067 16.96C3.50298 17.12 4.14638 17.03 4.7054 16.73L5.2433 16.44C5.623 16.23 5.96054 16.37 6.08711 16.44C6.20314 16.5 6.49845 16.71 6.49845 17.12V17.71C6.49845 18.97 7.58484 20 8.91383 20H11.0866C12.4156 20 13.502 18.97 13.502 17.71V17.12C13.502 16.71 13.7973 16.5 13.9239 16.44C14.0399 16.37 14.3774 16.23 14.7571 16.44L15.295 16.73C15.854 17.03 16.4975 17.12 17.1303 16.96C17.7526 16.8 18.2694 16.42 18.5964 15.89L19.6828 14.11C19.9992 13.58 20.0836 12.96 19.9148 12.37C19.7566 11.78 19.3558 11.29 18.7968 10.98ZM6.49845 10C6.49845 8.17 8.07003 6.68 10.0002 6.68C11.9304 6.68 13.502 8.17 13.502 10C13.502 11.83 11.9304 13.32 10.0002 13.32C8.07003 13.32 6.49845 11.83 6.49845 10Z" fill="white"/>
</svg>
