<?xml version="1.0" standalone="no"?>
<!DOCTYPE svg PUBLIC "-//W3C//DTD SVG 20010904//EN"
 "http://www.w3.org/TR/2001/REC-SVG-20010904/DTD/svg10.dtd">
<svg version="1.0" xmlns="http://www.w3.org/2000/svg"
 width="1280.000000pt" height="1004.000000pt" viewBox="0 0 1280.000000 1004.000000"
 preserveAspectRatio="xMidYMid meet">
<metadata>
Created by potrace 1.15, written by Peter Selinger 2001-2017
</metadata>
<g transform="translate(0.000000,1004.000000) scale(0.100000,-0.100000)"
fill="#000000" stroke="none">
<path d="M6080 10031 c-19 -4 -60 -21 -90 -39 -30 -17 -95 -45 -144 -63 -68
-24 -109 -48 -180 -103 -50 -39 -108 -83 -128 -98 -20 -16 -57 -61 -81 -100
l-45 -73 -5 -120 c-8 -153 7 -385 29 -461 9 -33 27 -86 41 -118 l24 -59 -43
-41 c-24 -23 -68 -78 -97 -123 -48 -74 -52 -86 -46 -121 l6 -39 -53 -11 c-29
-6 -78 -14 -108 -17 -95 -11 -274 -57 -305 -78 -100 -69 -232 -221 -322 -372
-51 -84 -82 -155 -134 -302 l-68 -192 -119 -153 c-105 -136 -132 -179 -237
-383 -64 -126 -135 -261 -157 -299 -26 -44 -50 -107 -69 -177 -15 -59 -35
-122 -44 -138 -19 -38 -19 -86 0 -226 32 -232 35 -247 91 -377 30 -72 54 -131
52 -132 -2 -2 -39 -10 -83 -20 -43 -9 -81 -18 -82 -20 -2 -2 21 -22 52 -45 31
-24 74 -70 100 -109 50 -74 54 -103 35 -247 -11 -87 -82 -325 -127 -427 -44
-101 -86 -264 -73 -288 5 -9 20 -24 33 -33 17 -11 30 -35 42 -79 l17 -64 -48
-89 c-40 -74 -69 -111 -165 -207 -134 -133 -179 -162 -242 -153 -37 6 -48 2
-85 -25 -24 -17 -117 -67 -205 -111 -121 -59 -195 -88 -291 -114 -71 -19 -131
-37 -134 -39 -2 -3 19 -43 48 -90 74 -123 220 -254 412 -369 78 -47 154 -89
168 -92 28 -7 132 -76 134 -89 1 -4 -69 -93 -154 -197 -139 -170 -156 -188
-168 -172 -7 10 -58 108 -112 218 -111 222 -137 264 -252 412 -67 85 -97 114
-190 180 -115 81 -113 79 -257 288 -38 55 -83 116 -99 135 l-30 35 -188 1
c-158 0 -219 5 -369 29 -157 25 -208 29 -395 29 l-215 1 -165 -56 c-210 -72
-334 -126 -418 -182 -37 -24 -109 -68 -160 -97 -52 -29 -108 -67 -126 -85 -53
-53 -72 -158 -41 -231 8 -20 48 -69 87 -109 84 -83 74 -80 298 -95 85 -6 273
-27 418 -46 l262 -35 136 -65 c75 -36 193 -87 263 -114 69 -26 144 -56 166
-65 35 -14 75 -63 311 -378 149 -199 327 -441 395 -537 96 -136 154 -207 264
-318 l140 -142 185 -21 c102 -11 208 -23 237 -26 43 -5 72 1 168 32 63 20 131
47 149 60 29 19 516 425 1529 1272 l169 141 86 16 c50 9 144 16 222 17 74 0
216 4 315 9 99 5 344 14 545 20 334 9 1497 62 1666 75 l71 6 139 -159 c117
-133 236 -247 741 -706 l601 -546 186 -295 c102 -161 246 -386 320 -499 l135
-206 50 -162 c27 -90 57 -192 67 -228 9 -36 20 -69 24 -73 4 -5 52 -15 107
-23 l100 -15 269 127 268 126 366 248 c495 335 531 361 635 459 50 48 194 181
320 297 268 247 375 355 375 379 0 26 -68 86 -134 119 -57 28 -60 29 -169 22
-61 -4 -136 -14 -167 -23 -42 -11 -148 -17 -450 -23 -217 -5 -438 -12 -490
-15 -84 -6 -101 -5 -150 15 -47 19 -66 21 -133 15 l-79 -7 -111 51 c-62 27
-124 54 -138 60 -29 11 -48 55 -69 166 -10 50 -19 67 -54 100 -61 59 -314 270
-587 489 l-239 193 -484 529 c-532 582 -574 621 -744 691 -112 47 -113 47 -97
81 7 15 16 70 19 122 4 52 8 95 9 96 1 1 216 6 477 11 416 8 488 8 585 -6
l110 -16 85 -67 c64 -50 95 -82 125 -132 42 -69 44 -70 113 -57 l42 8 0 -48
c0 -43 -5 -56 -45 -105 -25 -30 -43 -59 -40 -65 9 -13 44 -11 122 6 101 23
103 24 124 58 29 49 25 65 -18 69 -42 3 -44 10 -18 73 l15 35 150 0 c143 0
150 -1 150 -20 0 -11 0 -23 1 -27 0 -5 -15 -12 -34 -16 -32 -8 -35 -11 -41
-60 -3 -29 -6 -60 -6 -69 0 -22 30 -24 68 -4 20 10 42 11 82 5 100 -14 103
-14 95 24 -4 17 -15 44 -26 59 -20 29 -23 47 -13 95 6 29 7 30 52 26 52 -5
155 -38 189 -61 22 -14 22 -15 5 -44 -9 -16 -29 -36 -44 -44 -22 -11 -25 -18
-19 -41 4 -15 23 -40 43 -55 35 -29 35 -29 101 -17 88 16 95 21 80 56 -6 15
-17 42 -24 60 -7 18 -10 35 -7 38 3 3 75 -39 159 -95 84 -55 156 -100 159
-100 3 1 95 63 205 138 186 128 200 140 211 177 27 97 28 91 -20 115 l-44 21
-59 -22 c-100 -37 -157 -50 -191 -44 -37 7 -217 88 -224 101 -6 13 28 75 36
67 8 -9 94 -32 119 -33 14 0 17 9 17 59 0 41 -5 62 -16 72 -26 21 -69 119 -46
105 6 -3 19 6 30 21 l21 28 35 -41 c30 -36 45 -43 118 -62 75 -19 298 -36 296
-22 -1 3 4 18 10 33 23 55 15 70 -99 200 -90 104 -117 128 -148 137 -21 6 -44
17 -51 25 -17 20 -36 19 -76 -5 -18 -12 -65 -32 -106 -46 -85 -30 -190 -34
-240 -8 -26 14 -32 14 -46 0 -32 -28 -108 -39 -210 -32 -54 4 -153 7 -220 6
l-124 -2 -164 83 -163 83 -28 -22 c-16 -12 -54 -36 -85 -53 -31 -17 -74 -46
-95 -64 -63 -53 -66 -54 -274 -53 -107 0 -350 -3 -541 -7 l-348 -8 0 40 c0 43
-42 112 -80 133 -30 16 -67 -7 -165 -106 l-85 -86 -109 4 c-60 2 -112 6 -115
9 -3 2 -10 59 -15 125 -7 87 -17 139 -36 189 -14 39 -30 86 -34 105 -5 19 -29
114 -54 210 -31 118 -50 224 -62 325 -13 119 -27 189 -71 342 l-55 191 16 476
c15 432 15 485 0 567 -8 49 -21 104 -29 122 -7 18 -71 99 -141 181 -130 151
-279 282 -458 403 -38 26 -118 98 -177 162 -103 109 -109 118 -116 167 -10 85
10 135 97 245 13 17 25 51 30 90 5 35 11 81 15 101 7 45 -11 105 -37 119 -11
5 -38 9 -62 8 -54 -2 -123 26 -133 54 -4 12 -8 144 -9 292 l0 270 -36 75 c-20
41 -66 113 -103 160 -37 47 -78 99 -91 116 -25 32 -107 72 -249 121 -52 17
-81 22 -112 17 -39 -6 -45 -3 -87 35 -39 36 -50 41 -88 40 -24 -1 -60 -4 -79
-8z m-1461 -3651 c22 -40 -40 -197 -127 -319 -37 -52 -72 -96 -79 -98 -6 -3
-21 13 -31 33 -19 37 -19 39 0 108 11 39 38 117 61 173 36 93 43 103 76 117
49 21 82 16 100 -14z m2485 -709 c-7 -44 12 -117 59 -221 29 -64 70 -176 148
-400 22 -63 52 -134 65 -158 25 -42 36 -92 49 -219 l6 -63 -63 1 c-85 0 -264
22 -261 32 1 4 20 38 42 75 l40 67 -54 110 -54 110 -11 158 c-12 184 0 431 27
530 8 32 13 17 7 -22z m601 -1542 c4 -49 5 -93 2 -95 -3 -3 -29 -2 -59 3 l-53
8 -27 75 c-15 41 -27 78 -27 82 -1 4 29 9 67 11 37 2 72 4 78 5 8 1 14 -29 19
-89z m-1055 39 c-1 -26 -19 -140 -23 -145 -6 -5 -189 37 -198 46 -4 3 -10 27
-13 53 l-7 47 103 4 c57 1 111 4 121 5 9 1 17 -4 17 -10z"/>
</g>
</svg>
